<svg version="1.1" xmlns="http://www.w3.org/2000/svg" xmlns:xlink="http://www.w3.org/1999/xlink"
	 height="0">
<g id="play">
	<path d="M8.7,96c-0.3,0-0.7-0.1-1-0.3c-0.6-0.4-1-1-1-1.7V2c0-0.7,0.4-1.4,1-1.7c0.6-0.4,1.4-0.4,2,0l78.5,46c0.6,0.4,1,1,1,1.7
		s-0.4,1.4-1,1.7l-78.5,46C9.4,95.9,9.1,96,8.7,96z M10.7,5.5v85L83.3,48L10.7,5.5z"/>
</g>
<g id="pause">
	<path d="M70,86c-1.1,0-2-0.9-2-2V11c0-1.1,0.9-2,2-2s2,0.9,2,2v73C72,85.1,71.1,86,70,86z"/>
	<path d="M25,86c-1.1,0-2-0.9-2-2V11c0-1.1,0.9-2,2-2s2,0.9,2,2v73C27,85.1,26.1,86,25,86z"/>
</g>
<g id="close">
	<path d="M20.8,74.7c-0.8-0.8-0.8-2,0-2.8l51.6-51.6c0.8-0.8,2-0.8,2.8,0c0.8,0.8,0.8,2,0,2.8L23.6,74.7
		C22.8,75.5,21.6,75.5,20.8,74.7z"/>
	<path d="M20.8,20.8c0.8-0.8,2-0.8,2.8,0l51.6,51.6c0.8,0.8,0.8,2,0,2.8c-0.8,0.8-2,0.8-2.8,0L20.8,23.6C20,22.8,20,21.6,20.8,20.8z
		"/>
</g>
<g id="plus">
	<path d="M9.7,48c0-1.1,0.9-2,2-2h73c1.1,0,2,0.9,2,2s-0.9,2-2,2h-73C10.6,50,9.7,49.1,9.7,48z"/>
	<path d="M48,9.4c1.1,0,2,0.9,2,2v73c0,1.1-0.9,2-2,2s-2-0.9-2-2v-73C46,10.3,46.9,9.4,48,9.4z"/>
</g>
<g id="remove">
	<path d="M73.3,89.3H22.9c-1.1,0-2-0.9-2-2V29c0-1.1,0.9-2,2-2h50.5c1.1,0,2,0.9,2,2v58.3
		C75.3,88.4,74.4,89.3,73.3,89.3z M24.9,85.3h46.5V31H24.9V85.3z"/>
	<path d="M79.1,31h-62c-1.1,0-2-0.9-2-2V19c0-1.1,0.9-2,2-2h62c1.1,0,2,0.9,2,2v10C81.1,30.1,80.2,31,79.1,31z
		 M19.1,27h58v-6h-58V27z"/>
	<path d="M61.4,21H34.9c-1.1,0-2-0.9-2-2V9c0-1.1,0.9-2,2-2h26.5c1.1,0,2,0.9,2,2v10C63.4,20.1,62.5,21,61.4,21z
		 M36.9,17h22.5v-6H36.9V17z"/>
	<path d="M36,78c-1.1,0-2-0.9-2-2V40c0-1.1,0.9-2,2-2s2,0.9,2,2v36C38,77.1,37.1,78,36,78z"/>
	<path d="M48,78c-1.1,0-2-0.9-2-2V40c0-1.1,0.9-2,2-2s2,0.9,2,2v36C50,77.1,49.1,78,48,78z"/>
	<path d="M60,78c-1.1,0-2-0.9-2-2V40c0-1.1,0.9-2,2-2s2,0.9,2,2v36C62,77.1,61.1,78,60,78z"/>
</g>
<g id="plus-small">
	<path d="M48,68c-1.1,0-2-0.9-2-2V30c0-1.1,0.9-2,2-2s2,0.9,2,2v36C50,67.1,49.1,68,48,68z"/>
	<path d="M66,50H30c-1.1,0-2-0.9-2-2s0.9-2,2-2h36c1.1,0,2,0.9,2,2S67.1,50,66,50z"/>
</g>
<g id="minus-small">
	<path d="M66,50H30c-1.1,0-2-0.9-2-2s0.9-2,2-2h36c1.1,0,2,0.9,2,2S67.1,50,66,50z"/>
</g>
</svg>